<svg version="1" xmlns="http://www.w3.org/2000/svg" width="68" height="68" viewBox="0 0 51.000000 51.000000">
  <path d="M4.4 3.2C4.7 5 5.4 13 6.1 21c.6 8 1.4 16.7 1.8 19.5l.6 4.9 8 2.4c8.4 2.5 9.5 2.4 22.7-.8 3.9-.9 4.8-1.6 5.2-3.8.5-2.5 1.7-15.2 3.3-35.5l.6-7.7H3.9l.5 3.2zM40 13v4h-4c-2.2 0-4-.5-4-1 0-.6-2.8-1-6.5-1H19v6H39.3l-.7 5.2c-.3 2.9-.6 6.7-.6 8.5 0 2.4-.5 3.3-2.2 3.8-1.3.3-3.9 1.1-5.9 1.6-2.9.9-4.7.8-9.5-.7-5.9-1.9-5.9-1.9-6.2-6.2-.3-4.1-.2-4.2 2.7-4.2 2.6 0 3.1.4 3.1 2.5 0 2.6 1.6 3.1 8.5 2.6 3.5-.3 4.5-1.5 4.5-5.4V26h-9.4c-10.8 0-10 .7-11.1-10.3L11.8 9H40v4z"/>
</svg>
